<svg width="58" height="58" viewBox="0 0 58 58" fill="none" xmlns="http://www.w3.org/2000/svg">
  <defs>
    <linearGradient id="hero4-stroke" x1="13" y1="10" x2="44" y2="47" gradientUnits="userSpaceOnUse">
      <stop stop-color="#1797AB"/>
      <stop offset="1" stop-color="#0B274B"/>
    </linearGradient>
  </defs>
  <path d="M20 18V15.5C20 12.7386 22.2386 10.5 25 10.5H33C35.7614 10.5 38 12.7386 38 15.5V18" stroke="url(#hero4-stroke)" stroke-width="2.8" stroke-linecap="round"/>
  <path d="M15 18H43C44.6569 18 46 19.3431 46 21V40C46 43.3137 43.3137 46 40 46H18C14.6863 46 12 43.3137 12 40V21C12 19.3431 13.3431 18 15 18Z" stroke="url(#hero4-stroke)" stroke-width="2.8" stroke-linejoin="round"/>
  <circle cx="29" cy="31" r="8" fill="#8DE8F2"/>
  <path d="M29 27V35" stroke="#0B274B" stroke-width="2.4" stroke-linecap="round"/>
  <path d="M25 31H33" stroke="#0B274B" stroke-width="2.4" stroke-linecap="round"/>
</svg>
